<?xml version="1.0" standalone="no"?>
<svg xmlns="http://www.w3.org/2000/svg" width="500" height="500">
    <defs>
        <clipPath id="clip-path-dot-color">
            <path d="M 18 146v 16h 8a 8 8, 0, 0, 0, 0 -16" transform="rotate(-90,26,154)" />
            <path d="M 18 162v 16h 8a 8 8, 0, 0, 0, 0 -16" transform="rotate(90,26,170)" />
            <path d="M 18 226v 16h 16v -8a 8 8, 0, 0, 0, -8 -8" transform="rotate(-90,26,234)" />
            <rect x="18" y="242" width="16" height="16" transform="rotate(0,26,250)" />
            <rect x="18" y="258" width="16" height="16" transform="rotate(0,26,266)" />
            <path d="M 18 274v 16h 8a 8 8, 0, 0, 0, 0 -16" transform="rotate(90,26,282)" />
            <path d="M 18 306v 16h 16v -8a 8 8, 0, 0, 0, -8 -8" transform="rotate(-90,26,314)" />
            <path d="M 18 322v 16h 8a 8 8, 0, 0, 0, 0 -16" transform="rotate(90,26,330)" />
            <rect x="34" y="226" width="16" height="16" transform="rotate(0,42,234)" />
            <rect x="34" y="242" width="16" height="16" transform="rotate(0,42,250)" />
            <path d="M 34 258v 16h 16v -8a 8 8, 0, 0, 0, -8 -8" transform="rotate(90,42,266)" />
            <path d="M 34 306v 16h 8a 8 8, 0, 0, 0, 0 -16" transform="rotate(0,42,314)" />
            <circle cx="42" cy="346" r="8" transform="rotate(0,42,346)" />
            <path d="M 50 146v 16h 8a 8 8, 0, 0, 0, 0 -16" transform="rotate(180,58,154)" />
            <path d="M 50 178v 16h 8a 8 8, 0, 0, 0, 0 -16" transform="rotate(-90,58,186)" />
            <rect x="50" y="194" width="16" height="16" transform="rotate(0,58,202)" />
            <rect x="50" y="210" width="16" height="16" transform="rotate(0,58,218)" />
            <rect x="50" y="226" width="16" height="16" transform="rotate(0,58,234)" />
            <rect x="50" y="242" width="16" height="16" transform="rotate(0,58,250)" />
            <circle cx="58" cy="298" r="8" transform="rotate(0,58,298)" />
            <path d="M 50 322v 16h 8a 8 8, 0, 0, 0, 0 -16" transform="rotate(180,58,330)" />
            <path d="M 66 146v 16h 8a 8 8, 0, 0, 0, 0 -16" transform="rotate(0,74,154)" />
            <rect x="66" y="194" width="16" height="16" transform="rotate(0,74,202)" />
            <rect x="66" y="210" width="16" height="16" transform="rotate(0,74,218)" />
            <rect x="66" y="226" width="16" height="16" transform="rotate(0,74,234)" />
            <rect x="66" y="242" width="16" height="16" transform="rotate(0,74,250)" />
            <rect x="66" y="258" width="16" height="16" transform="rotate(0,74,266)" />
            <path d="M 66 274v 16h 16v -8a 8 8, 0, 0, 0, -8 -8" transform="rotate(180,74,282)" />
            <path d="M 66 322v 16h 16v -8a 8 8, 0, 0, 0, -8 -8" transform="rotate(0,74,330)" />
            <path d="M 66 338v 16h 8a 8 8, 0, 0, 0, 0 -16" transform="rotate(90,74,346)" />
            <path d="M 82 162v 16h 8a 8 8, 0, 0, 0, 0 -16" transform="rotate(180,90,170)" />
            <rect x="82" y="194" width="16" height="16" transform="rotate(0,90,202)" />
            <rect x="82" y="226" width="16" height="16" transform="rotate(0,90,234)" />
            <rect x="82" y="242" width="16" height="16" transform="rotate(0,90,250)" />
            <rect x="82" y="258" width="16" height="16" transform="rotate(0,90,266)" />
            <rect x="82" y="274" width="16" height="16" transform="rotate(0,90,282)" />
            <rect x="82" y="290" width="16" height="16" transform="rotate(0,90,298)" />
            <path d="M 82 306v 16h 16v -8a 8 8, 0, 0, 0, -8 -8" transform="rotate(180,90,314)" />
            <path d="M 98 146v 16h 16v -8a 8 8, 0, 0, 0, -8 -8" transform="rotate(-90,106,154)" />
            <path d="M 98 162v 16h 16v -8a 8 8, 0, 0, 0, -8 -8" transform="rotate(90,106,170)" />
            <path d="M 98 194v 16h 8a 8 8, 0, 0, 0, 0 -16" transform="rotate(0,106,202)" />
            <path d="M 98 226v 16h 16v -8a 8 8, 0, 0, 0, -8 -8" transform="rotate(0,106,234)" />
            <rect x="98" y="242" width="16" height="16" transform="rotate(0,106,250)" />
            <rect x="98" y="274" width="16" height="16" transform="rotate(0,106,282)" />
            <rect x="98" y="290" width="16" height="16" transform="rotate(0,106,298)" />
            <rect x="98" y="306" width="16" height="16" transform="rotate(0,106,314)" />
            <path d="M 98 322v 16h 8a 8 8, 0, 0, 0, 0 -16" transform="rotate(90,106,330)" />
            <rect x="114" y="146" width="16" height="16" transform="rotate(0,122,154)" />
            <path d="M 114 178v 16h 8a 8 8, 0, 0, 0, 0 -16" transform="rotate(180,122,186)" />
            <circle cx="122" cy="218" r="8" transform="rotate(0,122,218)" />
            <rect x="114" y="242" width="16" height="16" transform="rotate(0,122,250)" />
            <rect x="114" y="274" width="16" height="16" transform="rotate(0,122,282)" />
            <rect x="114" y="306" width="16" height="16" transform="rotate(0,122,314)" />
            <path d="M 114 338v 16h 8a 8 8, 0, 0, 0, 0 -16" transform="rotate(180,122,346)" />
            <rect x="130" y="146" width="16" height="16" transform="rotate(0,138,154)" />
            <rect x="130" y="162" width="16" height="16" transform="rotate(0,138,170)" />
            <rect x="130" y="178" width="16" height="16" transform="rotate(0,138,186)" />
            <path d="M 130 194v 16h 8a 8 8, 0, 0, 0, 0 -16" transform="rotate(90,138,202)" />
            <path d="M 130 226v 16h 8a 8 8, 0, 0, 0, 0 -16" transform="rotate(-90,138,234)" />
            <rect x="130" y="242" width="16" height="16" transform="rotate(0,138,250)" />
            <rect x="130" y="258" width="16" height="16" transform="rotate(0,138,266)" />
            <rect x="130" y="274" width="16" height="16" transform="rotate(0,138,282)" />
            <rect x="130" y="290" width="16" height="16" transform="rotate(0,138,298)" />
            <rect x="130" y="306" width="16" height="16" transform="rotate(0,138,314)" />
            <rect x="130" y="322" width="16" height="16" transform="rotate(0,138,330)" />
            <path d="M 130 338v 16h 16v -8a 8 8, 0, 0, 0, -8 -8" transform="rotate(90,138,346)" />
            <path d="M 146 34v 16h 8a 8 8, 0, 0, 0, 0 -16" transform="rotate(180,154,42)" />
            <path d="M 146 66v 16h 8a 8 8, 0, 0, 0, 0 -16" transform="rotate(180,154,74)" />
            <path d="M 146 98v 16h 8a 8 8, 0, 0, 0, 0 -16" transform="rotate(-90,154,106)" />
            <rect x="146" y="114" width="16" height="16" transform="rotate(0,154,122)" />
            <rect x="146" y="130" width="16" height="16" transform="rotate(0,154,138)" />
            <path d="M 146 146v 16h 16v -8a 8 8, 0, 0, 0, -8 -8" transform="rotate(90,154,154)" />
            <rect x="146" y="178" width="16" height="16" transform="rotate(0,154,186)" />
            <circle cx="154" cy="218" r="8" transform="rotate(0,154,218)" />
            <rect x="146" y="274" width="16" height="16" transform="rotate(0,154,282)" />
            <path d="M 146 354v 16h 16v -8a 8 8, 0, 0, 0, -8 -8" transform="rotate(-90,154,362)" />
            <rect x="146" y="370" width="16" height="16" transform="rotate(0,154,378)" />
            <path d="M 146 386v 16h 8a 8 8, 0, 0, 0, 0 -16" transform="rotate(90,154,394)" />
            <path d="M 146 418v 16h 16v -8a 8 8, 0, 0, 0, -8 -8" transform="rotate(-90,154,426)" />
            <path d="M 146 434v 16h 16v -8a 8 8, 0, 0, 0, -8 -8" transform="rotate(180,154,442)" />
            <path d="M 146 466v 16h 8a 8 8, 0, 0, 0, 0 -16" transform="rotate(180,154,474)" />
            <path d="M 162 18v 16h 8a 8 8, 0, 0, 0, 0 -16" transform="rotate(-90,170,26)" />
            <rect x="162" y="34" width="16" height="16" transform="rotate(0,170,42)" />
            <rect x="162" y="66" width="16" height="16" transform="rotate(0,170,74)" />
            <path d="M 162 82v 16h 16v -8a 8 8, 0, 0, 0, -8 -8" transform="rotate(180,170,90)" />
            <rect x="162" y="178" width="16" height="16" transform="rotate(0,170,186)" />
            <path d="M 162 274v 16h 8a 8 8, 0, 0, 0, 0 -16" transform="rotate(0,170,282)" />
            <path d="M 162 338v 16h 16v -8a 8 8, 0, 0, 0, -8 -8" transform="rotate(-90,170,346)" />
            <rect x="162" y="354" width="16" height="16" transform="rotate(0,170,362)" />
            <rect x="162" y="370" width="16" height="16" transform="rotate(0,170,378)" />
            <path d="M 162 418v 16h 16v -8a 8 8, 0, 0, 0, -8 -8" transform="rotate(0,170,426)" />
            <rect x="162" y="434" width="16" height="16" transform="rotate(0,170,442)" />
            <path d="M 162 466v 16h 8a 8 8, 0, 0, 0, 0 -16" transform="rotate(0,170,474)" />
            <rect x="178" y="34" width="16" height="16" transform="rotate(0,186,42)" />
            <rect x="178" y="50" width="16" height="16" transform="rotate(0,186,58)" />
            <rect x="178" y="66" width="16" height="16" transform="rotate(0,186,74)" />
            <path d="M 178 82v 16h 16v -8a 8 8, 0, 0, 0, -8 -8" transform="rotate(90,186,90)" />
            <circle cx="186" cy="122" r="8" transform="rotate(0,186,122)" />
            <path d="M 178 178v 16h 8a 8 8, 0, 0, 0, 0 -16" transform="rotate(0,186,186)" />
            <path d="M 178 210v 16h 16v -8a 8 8, 0, 0, 0, -8 -8" transform="rotate(-90,186,218)" />
            <rect x="178" y="226" width="16" height="16" transform="rotate(0,186,234)" />
            <rect x="178" y="242" width="16" height="16" transform="rotate(0,186,250)" />
            <path d="M 178 258v 16h 8a 8 8, 0, 0, 0, 0 -16" transform="rotate(90,186,266)" />
            <circle cx="186" cy="298" r="8" transform="rotate(0,186,298)" />
            <path d="M 178 322v 16h 8a 8 8, 0, 0, 0, 0 -16" transform="rotate(-90,186,330)" />
            <path d="M 178 338v 16h 16v -8a 8 8, 0, 0, 0, -8 -8" transform="rotate(90,186,346)" />
            <rect x="178" y="370" width="16" height="16" transform="rotate(0,186,378)" />
            <rect x="178" y="434" width="16" height="16" transform="rotate(0,186,442)" />
            <path d="M 178 450v 16h 16v -8a 8 8, 0, 0, 0, -8 -8" transform="rotate(180,186,458)" />
            <rect x="194" y="34" width="16" height="16" transform="rotate(0,202,42)" />
            <rect x="194" y="50" width="16" height="16" transform="rotate(0,202,58)" />
            <path d="M 194 66v 16h 16v -8a 8 8, 0, 0, 0, -8 -8" transform="rotate(90,202,74)" />
            <path d="M 194 98v 16h 8a 8 8, 0, 0, 0, 0 -16" transform="rotate(180,202,106)" />
            <path d="M 194 130v 16h 8a 8 8, 0, 0, 0, 0 -16" transform="rotate(180,202,138)" />
            <circle cx="202" cy="170" r="8" transform="rotate(0,202,170)" />
            <path d="M 194 194v 16h 16v -8a 8 8, 0, 0, 0, -8 -8" transform="rotate(-90,202,202)" />
            <rect x="194" y="210" width="16" height="16" transform="rotate(0,202,218)" />
            <rect x="194" y="226" width="16" height="16" transform="rotate(0,202,234)" />
            <rect x="194" y="242" width="16" height="16" transform="rotate(0,202,250)" />
            <path d="M 194 274v 16h 8a 8 8, 0, 0, 0, 0 -16" transform="rotate(180,202,282)" />
            <path d="M 194 354v 16h 8a 8 8, 0, 0, 0, 0 -16" transform="rotate(-90,202,362)" />
            <rect x="194" y="370" width="16" height="16" transform="rotate(0,202,378)" />
            <path d="M 194 434v 16h 16v -8a 8 8, 0, 0, 0, -8 -8" transform="rotate(0,202,442)" />
            <path d="M 194 450v 16h 16v -8a 8 8, 0, 0, 0, -8 -8" transform="rotate(90,202,458)" />
            <path d="M 210 34v 16h 8a 8 8, 0, 0, 0, 0 -16" transform="rotate(0,218,42)" />
            <path d="M 210 82v 16h 16v -8a 8 8, 0, 0, 0, -8 -8" transform="rotate(-90,218,90)" />
            <rect x="210" y="98" width="16" height="16" transform="rotate(0,218,106)" />
            <rect x="210" y="114" width="16" height="16" transform="rotate(0,218,122)" />
            <rect x="210" y="130" width="16" height="16" transform="rotate(0,218,138)" />
            <path d="M 210 146v 16h 8a 8 8, 0, 0, 0, 0 -16" transform="rotate(90,218,154)" />
            <path d="M 210 194v 16h 16v -8a 8 8, 0, 0, 0, -8 -8" transform="rotate(0,218,202)" />
            <rect x="210" y="210" width="16" height="16" transform="rotate(0,218,218)" />
            <rect x="210" y="226" width="16" height="16" transform="rotate(0,218,234)" />
            <path d="M 210 242v 16h 16v -8a 8 8, 0, 0, 0, -8 -8" transform="rotate(90,218,250)" />
            <path d="M 210 274v 16h 16v -8a 8 8, 0, 0, 0, -8 -8" transform="rotate(0,218,282)" />
            <path d="M 210 290v 16h 8a 8 8, 0, 0, 0, 0 -16" transform="rotate(90,218,298)" />
            <path d="M 210 322v 16h 8a 8 8, 0, 0, 0, 0 -16" transform="rotate(180,218,330)" />
            <path d="M 210 370v 16h 16v -8a 8 8, 0, 0, 0, -8 -8" transform="rotate(0,218,378)" />
            <path d="M 210 386v 16h 16v -8a 8 8, 0, 0, 0, -8 -8" transform="rotate(180,218,394)" />
            <path d="M 226 82v 16h 8a 8 8, 0, 0, 0, 0 -16" transform="rotate(0,234,90)" />
            <path d="M 226 130v 16h 8a 8 8, 0, 0, 0, 0 -16" transform="rotate(0,234,138)" />
            <circle cx="234" cy="170" r="8" transform="rotate(0,234,170)" />
            <path d="M 226 306v 16h 8a 8 8, 0, 0, 0, 0 -16" transform="rotate(-90,234,314)" />
            <rect x="226" y="322" width="16" height="16" transform="rotate(0,234,330)" />
            <rect x="226" y="338" width="16" height="16" transform="rotate(0,234,346)" />
            <path d="M 226 354v 16h 8a 8 8, 0, 0, 0, 0 -16" transform="rotate(90,234,362)" />
            <path d="M 226 386v 16h 8a 8 8, 0, 0, 0, 0 -16" transform="rotate(0,234,394)" />
            <circle cx="234" cy="426" r="8" transform="rotate(0,234,426)" />
            <path d="M 226 450v 16h 8a 8 8, 0, 0, 0, 0 -16" transform="rotate(180,234,458)" />
            <path d="M 242 18v 16h 8a 8 8, 0, 0, 0, 0 -16" transform="rotate(180,250,26)" />
            <path d="M 242 98v 16h 8a 8 8, 0, 0, 0, 0 -16" transform="rotate(-90,250,106)" />
            <path d="M 242 114v 16h 8a 8 8, 0, 0, 0, 0 -16" transform="rotate(90,250,122)" />
            <path d="M 242 194v 16h 8a 8 8, 0, 0, 0, 0 -16" transform="rotate(180,250,202)" />
            <path d="M 242 226v 16h 8a 8 8, 0, 0, 0, 0 -16" transform="rotate(180,250,234)" />
            <path d="M 242 274v 16h 8a 8 8, 0, 0, 0, 0 -16" transform="rotate(-90,250,282)" />
            <path d="M 242 290v 16h 16v -8a 8 8, 0, 0, 0, -8 -8" transform="rotate(180,250,298)" />
            <rect x="242" y="338" width="16" height="16" transform="rotate(0,250,346)" />
            <path d="M 242 370v 16h 8a 8 8, 0, 0, 0, 0 -16" transform="rotate(180,250,378)" />
            <rect x="242" y="450" width="16" height="16" transform="rotate(0,250,458)" />
            <path d="M 242 466v 16h 8a 8 8, 0, 0, 0, 0 -16" transform="rotate(90,250,474)" />
            <path d="M 258 18v 16h 16v -8a 8 8, 0, 0, 0, -8 -8" transform="rotate(0,266,26)" />
            <rect x="258" y="34" width="16" height="16" transform="rotate(0,266,42)" />
            <path d="M 258 50v 16h 8a 8 8, 0, 0, 0, 0 -16" transform="rotate(90,266,58)" />
            <circle cx="266" cy="90" r="8" transform="rotate(0,266,90)" />
            <path d="M 258 130v 16h 16v -8a 8 8, 0, 0, 0, -8 -8" transform="rotate(-90,266,138)" />
            <path d="M 258 146v 16h 8a 8 8, 0, 0, 0, 0 -16" transform="rotate(90,266,154)" />
            <path d="M 258 178v 16h 8a 8 8, 0, 0, 0, 0 -16" transform="rotate(-90,266,186)" />
            <rect x="258" y="194" width="16" height="16" transform="rotate(0,266,202)" />
            <rect x="258" y="210" width="16" height="16" transform="rotate(0,266,218)" />
            <path d="M 258 226v 16h 16v -8a 8 8, 0, 0, 0, -8 -8" transform="rotate(90,266,234)" />
            <path d="M 258 290v 16h 16v -8a 8 8, 0, 0, 0, -8 -8" transform="rotate(0,266,298)" />
            <path d="M 258 306v 16h 16v -8a 8 8, 0, 0, 0, -8 -8" transform="rotate(180,266,314)" />
            <rect x="258" y="338" width="16" height="16" transform="rotate(0,266,346)" />
            <path d="M 258 370v 16h 16v -8a 8 8, 0, 0, 0, -8 -8" transform="rotate(0,266,378)" />
            <path d="M 258 386v 16h 16v -8a 8 8, 0, 0, 0, -8 -8" transform="rotate(180,266,394)" />
            <rect x="258" y="450" width="16" height="16" transform="rotate(0,266,458)" />
            <path d="M 274 34v 16h 8a 8 8, 0, 0, 0, 0 -16" transform="rotate(0,282,42)" />
            <path d="M 274 66v 16h 8a 8 8, 0, 0, 0, 0 -16" transform="rotate(180,282,74)" />
            <path d="M 274 114v 16h 8a 8 8, 0, 0, 0, 0 -16" transform="rotate(-90,282,122)" />
            <path d="M 274 130v 16h 16v -8a 8 8, 0, 0, 0, -8 -8" transform="rotate(90,282,138)" />
            <path d="M 274 162v 16h 8a 8 8, 0, 0, 0, 0 -16" transform="rotate(180,282,170)" />
            <path d="M 274 194v 16h 8a 8 8, 0, 0, 0, 0 -16" transform="rotate(0,282,202)" />
            <path d="M 274 242v 16h 16v -8a 8 8, 0, 0, 0, -8 -8" transform="rotate(-90,282,250)" />
            <path d="M 274 258v 16h 16v -8a 8 8, 0, 0, 0, -8 -8" transform="rotate(180,282,266)" />
            <path d="M 274 306v 16h 16v -8a 8 8, 0, 0, 0, -8 -8" transform="rotate(0,282,314)" />
            <rect x="274" y="322" width="16" height="16" transform="rotate(0,282,330)" />
            <rect x="274" y="338" width="16" height="16" transform="rotate(0,282,346)" />
            <path d="M 274 354v 16h 16v -8a 8 8, 0, 0, 0, -8 -8" transform="rotate(180,282,362)" />
            <rect x="274" y="386" width="16" height="16" transform="rotate(0,282,394)" />
            <rect x="274" y="450" width="16" height="16" transform="rotate(0,282,458)" />
            <path d="M 290 66v 16h 8a 8 8, 0, 0, 0, 0 -16" transform="rotate(0,298,74)" />
            <circle cx="298" cy="106" r="8" transform="rotate(0,298,106)" />
            <path d="M 290 146v 16h 16v -8a 8 8, 0, 0, 0, -8 -8" transform="rotate(-90,298,154)" />
            <path d="M 290 162v 16h 16v -8a 8 8, 0, 0, 0, -8 -8" transform="rotate(90,298,170)" />
            <path d="M 290 210v 16h 8a 8 8, 0, 0, 0, 0 -16" transform="rotate(180,298,218)" />
            <path d="M 290 242v 16h 16v -8a 8 8, 0, 0, 0, -8 -8" transform="rotate(0,298,250)" />
            <rect x="290" y="258" width="16" height="16" transform="rotate(0,298,266)" />
            <path d="M 290 274v 16h 16v -8a 8 8, 0, 0, 0, -8 -8" transform="rotate(180,298,282)" />
            <path d="M 290 338v 16h 16v -8a 8 8, 0, 0, 0, -8 -8" transform="rotate(0,298,346)" />
            <rect x="290" y="354" width="16" height="16" transform="rotate(0,298,362)" />
            <rect x="290" y="370" width="16" height="16" transform="rotate(0,298,378)" />
            <rect x="290" y="386" width="16" height="16" transform="rotate(0,298,394)" />
            <rect x="290" y="450" width="16" height="16" transform="rotate(0,298,458)" />
            <path d="M 290 466v 16h 16v -8a 8 8, 0, 0, 0, -8 -8" transform="rotate(180,298,474)" />
            <circle cx="314" cy="26" r="8" transform="rotate(0,314,26)" />
            <path d="M 306 82v 16h 8a 8 8, 0, 0, 0, 0 -16" transform="rotate(180,314,90)" />
            <path d="M 306 114v 16h 8a 8 8, 0, 0, 0, 0 -16" transform="rotate(-90,314,122)" />
            <rect x="306" y="130" width="16" height="16" transform="rotate(0,314,138)" />
            <path d="M 306 146v 16h 16v -8a 8 8, 0, 0, 0, -8 -8" transform="rotate(90,314,154)" />
            <path d="M 306 194v 16h 16v -8a 8 8, 0, 0, 0, -8 -8" transform="rotate(-90,314,202)" />
            <rect x="306" y="210" width="16" height="16" transform="rotate(0,314,218)" />
            <path d="M 306 226v 16h 8a 8 8, 0, 0, 0, 0 -16" transform="rotate(90,314,234)" />
            <path d="M 306 258v 16h 16v -8a 8 8, 0, 0, 0, -8 -8" transform="rotate(0,314,266)" />
            <path d="M 306 274v 16h 16v -8a 8 8, 0, 0, 0, -8 -8" transform="rotate(90,314,282)" />
            <path d="M 306 306v 16h 8a 8 8, 0, 0, 0, 0 -16" transform="rotate(180,314,314)" />
            <path d="M 306 354v 16h 8a 8 8, 0, 0, 0, 0 -16" transform="rotate(0,314,362)" />
            <rect x="306" y="386" width="16" height="16" transform="rotate(0,314,394)" />
            <path d="M 306 402v 16h 8a 8 8, 0, 0, 0, 0 -16" transform="rotate(90,314,410)" />
            <path d="M 306 450v 16h 16v -8a 8 8, 0, 0, 0, -8 -8" transform="rotate(0,314,458)" />
            <rect x="306" y="466" width="16" height="16" transform="rotate(0,314,474)" />
            <path d="M 322 50v 16h 8a 8 8, 0, 0, 0, 0 -16" transform="rotate(180,330,58)" />
            <rect x="322" y="82" width="16" height="16" transform="rotate(0,330,90)" />
            <rect x="322" y="130" width="16" height="16" transform="rotate(0,330,138)" />
            <path d="M 322 178v 16h 8a 8 8, 0, 0, 0, 0 -16" transform="rotate(-90,330,186)" />
            <path d="M 322 194v 16h 16v -8a 8 8, 0, 0, 0, -8 -8" transform="rotate(90,330,202)" />
            <path d="M 322 290v 16h 8a 8 8, 0, 0, 0, 0 -16" transform="rotate(-90,330,298)" />
            <path d="M 322 306v 16h 16v -8a 8 8, 0, 0, 0, -8 -8" transform="rotate(90,330,314)" />
            <rect x="322" y="386" width="16" height="16" transform="rotate(0,330,394)" />
            <circle cx="330" cy="426" r="8" transform="rotate(0,330,426)" />
            <path d="M 322 466v 16h 8a 8 8, 0, 0, 0, 0 -16" transform="rotate(0,330,474)" />
            <circle cx="346" cy="26" r="8" transform="rotate(0,346,26)" />
            <path d="M 338 50v 16h 8a 8 8, 0, 0, 0, 0 -16" transform="rotate(0,346,58)" />
            <path d="M 338 82v 16h 16v -8a 8 8, 0, 0, 0, -8 -8" transform="rotate(0,346,90)" />
            <rect x="338" y="98" width="16" height="16" transform="rotate(0,346,106)" />
            <rect x="338" y="114" width="16" height="16" transform="rotate(0,346,122)" />
            <rect x="338" y="130" width="16" height="16" transform="rotate(0,346,138)" />
            <rect x="338" y="146" width="16" height="16" transform="rotate(0,346,154)" />
            <path d="M 338 162v 16h 16v -8a 8 8, 0, 0, 0, -8 -8" transform="rotate(180,346,170)" />
            <path d="M 338 258v 16h 8a 8 8, 0, 0, 0, 0 -16" transform="rotate(-90,346,266)" />
            <path d="M 338 274v 16h 16v -8a 8 8, 0, 0, 0, -8 -8" transform="rotate(180,346,282)" />
            <path d="M 338 338v 16h 16v -8a 8 8, 0, 0, 0, -8 -8" transform="rotate(-90,346,346)" />
            <rect x="338" y="354" width="16" height="16" transform="rotate(0,346,362)" />
            <rect x="338" y="370" width="16" height="16" transform="rotate(0,346,378)" />
            <rect x="338" y="386" width="16" height="16" transform="rotate(0,346,394)" />
            <path d="M 338 402v 16h 16v -8a 8 8, 0, 0, 0, -8 -8" transform="rotate(180,346,410)" />
            <path d="M 338 434v 16h 8a 8 8, 0, 0, 0, 0 -16" transform="rotate(-90,346,442)" />
            <path d="M 338 450v 16h 8a 8 8, 0, 0, 0, 0 -16" transform="rotate(90,346,458)" />
            <rect x="354" y="146" width="16" height="16" transform="rotate(0,362,154)" />
            <rect x="354" y="162" width="16" height="16" transform="rotate(0,362,170)" />
            <path d="M 354 178v 16h 8a 8 8, 0, 0, 0, 0 -16" transform="rotate(90,362,186)" />
            <path d="M 354 226v 16h 8a 8 8, 0, 0, 0, 0 -16" transform="rotate(-90,362,234)" />
            <path d="M 354 242v 16h 8a 8 8, 0, 0, 0, 0 -16" transform="rotate(90,362,250)" />
            <rect x="354" y="274" width="16" height="16" transform="rotate(0,362,282)" />
            <circle cx="362" cy="314" r="8" transform="rotate(0,362,314)" />
            <rect x="354" y="338" width="16" height="16" transform="rotate(0,362,346)" />
            <rect x="354" y="402" width="16" height="16" transform="rotate(0,362,410)" />
            <circle cx="362" cy="474" r="8" transform="rotate(0,362,474)" />
            <rect x="370" y="146" width="16" height="16" transform="rotate(0,378,154)" />
            <rect x="370" y="162" width="16" height="16" transform="rotate(0,378,170)" />
            <path d="M 370 194v 16h 8a 8 8, 0, 0, 0, 0 -16" transform="rotate(180,378,202)" />
            <rect x="370" y="274" width="16" height="16" transform="rotate(0,378,282)" />
            <path d="M 370 290v 16h 16v -8a 8 8, 0, 0, 0, -8 -8" transform="rotate(180,378,298)" />
            <rect x="370" y="338" width="16" height="16" transform="rotate(0,378,346)" />
            <circle cx="378" cy="378" r="8" transform="rotate(0,378,378)" />
            <rect x="370" y="402" width="16" height="16" transform="rotate(0,378,410)" />
            <rect x="370" y="418" width="16" height="16" transform="rotate(0,378,426)" />
            <rect x="370" y="434" width="16" height="16" transform="rotate(0,378,442)" />
            <path d="M 370 450v 16h 16v -8a 8 8, 0, 0, 0, -8 -8" transform="rotate(180,378,458)" />
            <path d="M 386 146v 16h 16v -8a 8 8, 0, 0, 0, -8 -8" transform="rotate(0,394,154)" />
            <path d="M 386 162v 16h 16v -8a 8 8, 0, 0, 0, -8 -8" transform="rotate(90,394,170)" />
            <path d="M 386 194v 16h 8a 8 8, 0, 0, 0, 0 -16" transform="rotate(0,394,202)" />
            <path d="M 386 242v 16h 8a 8 8, 0, 0, 0, 0 -16" transform="rotate(-90,394,250)" />
            <rect x="386" y="258" width="16" height="16" transform="rotate(0,394,266)" />
            <rect x="386" y="274" width="16" height="16" transform="rotate(0,394,282)" />
            <path d="M 386 290v 16h 16v -8a 8 8, 0, 0, 0, -8 -8" transform="rotate(90,394,298)" />
            <rect x="386" y="338" width="16" height="16" transform="rotate(0,394,346)" />
            <rect x="386" y="402" width="16" height="16" transform="rotate(0,394,410)" />
            <path d="M 386 434v 16h 16v -8a 8 8, 0, 0, 0, -8 -8" transform="rotate(0,394,442)" />
            <rect x="386" y="450" width="16" height="16" transform="rotate(0,394,458)" />
            <path d="M 386 466v 16h 8a 8 8, 0, 0, 0, 0 -16" transform="rotate(90,394,474)" />
            <circle cx="410" cy="234" r="8" transform="rotate(0,410,234)" />
            <rect x="402" y="338" width="16" height="16" transform="rotate(0,410,346)" />
            <rect x="402" y="354" width="16" height="16" transform="rotate(0,410,362)" />
            <rect x="402" y="370" width="16" height="16" transform="rotate(0,410,378)" />
            <rect x="402" y="386" width="16" height="16" transform="rotate(0,410,394)" />
            <rect x="402" y="402" width="16" height="16" transform="rotate(0,410,410)" />
            <path d="M 402 418v 16h 16v -8a 8 8, 0, 0, 0, -8 -8" transform="rotate(180,410,426)" />
            <path d="M 402 450v 16h 8a 8 8, 0, 0, 0, 0 -16" transform="rotate(0,410,458)" />
            <circle cx="426" cy="154" r="8" transform="rotate(0,426,154)" />
            <path d="M 418 210v 16h 8a 8 8, 0, 0, 0, 0 -16" transform="rotate(180,426,218)" />
            <path d="M 418 242v 16h 16v -8a 8 8, 0, 0, 0, -8 -8" transform="rotate(-90,426,250)" />
            <rect x="418" y="258" width="16" height="16" transform="rotate(0,426,266)" />
            <rect x="418" y="274" width="16" height="16" transform="rotate(0,426,282)" />
            <path d="M 418 290v 16h 16v -8a 8 8, 0, 0, 0, -8 -8" transform="rotate(180,426,298)" />
            <path d="M 418 322v 16h 16v -8a 8 8, 0, 0, 0, -8 -8" transform="rotate(-90,426,330)" />
            <rect x="418" y="338" width="16" height="16" transform="rotate(0,426,346)" />
            <rect x="418" y="354" width="16" height="16" transform="rotate(0,426,362)" />
            <path d="M 418 370v 16h 16v -8a 8 8, 0, 0, 0, -8 -8" transform="rotate(90,426,378)" />
            <rect x="418" y="402" width="16" height="16" transform="rotate(0,426,410)" />
            <rect x="418" y="418" width="16" height="16" transform="rotate(0,426,426)" />
            <path d="M 418 466v 16h 8a 8 8, 0, 0, 0, 0 -16" transform="rotate(180,426,474)" />
            <path d="M 434 210v 16h 8a 8 8, 0, 0, 0, 0 -16" transform="rotate(0,442,218)" />
            <rect x="434" y="242" width="16" height="16" transform="rotate(0,442,250)" />
            <rect x="434" y="290" width="16" height="16" transform="rotate(0,442,298)" />
            <rect x="434" y="322" width="16" height="16" transform="rotate(0,442,330)" />
            <rect x="434" y="338" width="16" height="16" transform="rotate(0,442,346)" />
            <path d="M 434 402v 16h 16v -8a 8 8, 0, 0, 0, -8 -8" transform="rotate(0,442,410)" />
            <rect x="434" y="418" width="16" height="16" transform="rotate(0,442,426)" />
            <path d="M 434 434v 16h 8a 8 8, 0, 0, 0, 0 -16" transform="rotate(90,442,442)" />
            <path d="M 434 466v 16h 8a 8 8, 0, 0, 0, 0 -16" transform="rotate(0,442,474)" />
            <path d="M 450 146v 16h 8a 8 8, 0, 0, 0, 0 -16" transform="rotate(-90,458,154)" />
            <rect x="450" y="162" width="16" height="16" transform="rotate(0,458,170)" />
            <rect x="450" y="178" width="16" height="16" transform="rotate(0,458,186)" />
            <path d="M 450 194v 16h 8a 8 8, 0, 0, 0, 0 -16" transform="rotate(90,458,202)" />
            <path d="M 450 242v 16h 16v -8a 8 8, 0, 0, 0, -8 -8" transform="rotate(0,458,250)" />
            <path d="M 450 258v 16h 8a 8 8, 0, 0, 0, 0 -16" transform="rotate(90,458,266)" />
            <rect x="450" y="290" width="16" height="16" transform="rotate(0,458,298)" />
            <rect x="450" y="306" width="16" height="16" transform="rotate(0,458,314)" />
            <rect x="450" y="322" width="16" height="16" transform="rotate(0,458,330)" />
            <rect x="450" y="338" width="16" height="16" transform="rotate(0,458,346)" />
            <rect x="450" y="354" width="16" height="16" transform="rotate(0,458,362)" />
            <rect x="450" y="370" width="16" height="16" transform="rotate(0,458,378)" />
            <path d="M 450 386v 16h 8a 8 8, 0, 0, 0, 0 -16" transform="rotate(90,458,394)" />
            <path d="M 450 450v 16h 8a 8 8, 0, 0, 0, 0 -16" transform="rotate(180,458,458)" />
            <path d="M 466 162v 16h 8a 8 8, 0, 0, 0, 0 -16" transform="rotate(0,474,170)" />
            <path d="M 466 290v 16h 8a 8 8, 0, 0, 0, 0 -16" transform="rotate(0,474,298)" />
            <path d="M 466 338v 16h 16v -8a 8 8, 0, 0, 0, -8 -8" transform="rotate(0,474,346)" />
            <path d="M 466 354v 16h 16v -8a 8 8, 0, 0, 0, -8 -8" transform="rotate(90,474,362)" />
            <path d="M 466 402v 16h 8a 8 8, 0, 0, 0, 0 -16" transform="rotate(-90,474,410)" />
            <path d="M 466 418v 16h 8a 8 8, 0, 0, 0, 0 -16" transform="rotate(90,474,426)" />
            <path d="M 466 450v 16h 8a 8 8, 0, 0, 0, 0 -16" transform="rotate(0,474,458)" />
        </clipPath>
        <clipPath id="clip-path-corners-square-color-0-0">
            <path clip-rule="evenodd"
                d="M 18 58v 32a 40 40, 0, 0, 0, 40 40h 32a 40 40, 0, 0, 0, 40 -40v -32a 40 40, 0, 0, 0, -40 -40h -32a 40 40, 0, 0, 0, -40 40M 58 34h 32a 24 24, 0, 0, 1, 24 24v 32a 24 24, 0, 0, 1, -24 24h -32a 24 24, 0, 0, 1, -24 -24v -32a 24 24, 0, 0, 1, 24 -24"
                transform="rotate(0,74,74)" />
        </clipPath>
        <clipPath id="clip-path-corners-dot-color-0-0">
            <circle cx="74" cy="74" r="24" transform="rotate(0,74,74)" />
        </clipPath>
        <clipPath id="clip-path-corners-square-color-1-0">
            <path clip-rule="evenodd"
                d="M 370 58v 32a 40 40, 0, 0, 0, 40 40h 32a 40 40, 0, 0, 0, 40 -40v -32a 40 40, 0, 0, 0, -40 -40h -32a 40 40, 0, 0, 0, -40 40M 410 34h 32a 24 24, 0, 0, 1, 24 24v 32a 24 24, 0, 0, 1, -24 24h -32a 24 24, 0, 0, 1, -24 -24v -32a 24 24, 0, 0, 1, 24 -24"
                transform="rotate(90,426,74)" />
        </clipPath>
        <clipPath id="clip-path-corners-dot-color-1-0">
            <circle cx="426" cy="74" r="24" transform="rotate(90,426,74)" />
        </clipPath>
        <clipPath id="clip-path-corners-square-color-0-1">
            <path clip-rule="evenodd"
                d="M 18 410v 32a 40 40, 0, 0, 0, 40 40h 32a 40 40, 0, 0, 0, 40 -40v -32a 40 40, 0, 0, 0, -40 -40h -32a 40 40, 0, 0, 0, -40 40M 58 386h 32a 24 24, 0, 0, 1, 24 24v 32a 24 24, 0, 0, 1, -24 24h -32a 24 24, 0, 0, 1, -24 -24v -32a 24 24, 0, 0, 1, 24 -24"
                transform="rotate(-90,74,426)" />
        </clipPath>
        <clipPath id="clip-path-corners-dot-color-0-1">
            <circle cx="74" cy="426" r="24" transform="rotate(-90,74,426)" />
        </clipPath>
    </defs>
    <rect x="0" y="0" height="500" width="500" clip-path="url('#clip-path-background-color')" fill="transparent" />
    <rect x="0" y="0" height="500" width="500" clip-path="url('#clip-path-dot-color')" fill="#18417E" />
    <rect x="18" y="18" height="112" width="112" clip-path="url('#clip-path-corners-square-color-0-0')"
        fill="#18417E" />
    <rect x="50" y="50" height="48" width="48" clip-path="url('#clip-path-corners-dot-color-0-0')" fill="#18417E" />
    <rect x="370" y="18" height="112" width="112" clip-path="url('#clip-path-corners-square-color-1-0')"
        fill="#18417E" />
    <rect x="402" y="50" height="48" width="48" clip-path="url('#clip-path-corners-dot-color-1-0')" fill="#18417E" />
    <rect x="18" y="370" height="112" width="112" clip-path="url('#clip-path-corners-square-color-0-1')"
        fill="#18417E" />
    <rect x="50" y="402" height="48" width="48" clip-path="url('#clip-path-corners-dot-color-0-1')" fill="#18417E" />
</svg>